<svg width="30" height="30" viewBox="0 0 30 30" fill="none" xmlns="http://www.w3.org/2000/svg">
<circle cx="15" cy="15" r="15" fill="#3772FF" fill-opacity="0.2"/>
<path d="M10.1856 18.9125L12.6294 16.4688L14.3975 18.2362L17.2544 15.38L18.375 16.5V13.375H15.25L16.3706 14.4956L14.3975 16.4688L12.63 14.7006L9.53876 17.7919C9.18246 16.9919 8.99888 16.1257 9.00001 15.25C9.00001 11.7981 11.7981 9 15.25 9C18.7019 9 21.5 11.7981 21.5 15.25C21.5 18.7019 18.7019 21.5 15.25 21.5C14.2613 21.5006 13.2865 21.2664 12.406 20.8165C11.5255 20.3667 10.7645 19.7141 10.1856 18.9125Z" fill="#3772FF"/>
</svg>
