<svg width="651" height="667" viewBox="0 0 651 667" fill="none" xmlns="http://www.w3.org/2000/svg">
<path d="M650.204 572.311L556.311 409.683L393.683 503.576L487.576 666.204L650.204 572.311Z" stroke="black" stroke-opacity="0.1" stroke-miterlimit="10"/>
<path d="M572.238 436.661L420.988 488.002L472.329 639.251L623.578 587.91L572.238 436.661Z" stroke="black" stroke-opacity="0.1" stroke-miterlimit="10"/>
<path d="M580.608 462.013L445.934 479.742L463.663 614.416L598.337 596.686L580.608 462.013Z" stroke="black" stroke-opacity="0.1" stroke-miterlimit="10"/>
<path d="M583.31 484.549L468.063 476.994L460.509 592.241L575.755 599.795L583.31 484.549Z" stroke="black" stroke-opacity="0.1" stroke-miterlimit="10"/>
<path d="M582.17 503.111L487.244 477.676L461.809 572.602L556.735 598.037L582.17 503.111Z" stroke="black" stroke-opacity="0.1" stroke-miterlimit="10"/>
<path d="M578.139 519.46L503.188 482.499L466.228 557.449L541.179 594.409L578.139 519.46Z" stroke="black" stroke-opacity="0.1" stroke-miterlimit="10"/>
<path d="M571.422 531.055L515.062 487.801L471.808 544.16L528.168 587.415L571.422 531.055Z" stroke="black" stroke-opacity="0.1" stroke-miterlimit="10"/>
<path d="M564.218 540.383L524.395 494.965L478.976 534.789L518.799 580.207L564.218 540.383Z" stroke="black" stroke-opacity="0.1" stroke-miterlimit="10"/>
<path d="M557.091 547.287L531.427 502.834L486.976 528.498L512.641 572.95L557.091 547.287Z" stroke="black" stroke-opacity="0.1" stroke-miterlimit="10"/>
<path d="M257.204 163.311L163.311 0.683105L0.683018 94.5763L94.5763 257.204L257.204 163.311Z" stroke="black" stroke-opacity="0.1" stroke-miterlimit="10"/>
<path d="M179.238 27.6611L27.9885 79.0021L79.329 230.251L230.579 178.91L179.238 27.6611Z" stroke="black" stroke-opacity="0.1" stroke-miterlimit="10"/>
<path d="M187.608 53.0126L52.9344 70.7416L70.6633 205.416L205.337 187.686L187.608 53.0126Z" stroke="black" stroke-opacity="0.1" stroke-miterlimit="10"/>
<path d="M190.31 75.5487L75.0632 67.9943L67.5086 183.241L182.755 190.795L190.31 75.5487Z" stroke="black" stroke-opacity="0.1" stroke-miterlimit="10"/>
<path d="M189.17 94.1114L94.2444 68.6761L68.8091 163.602L163.735 189.037L189.17 94.1114Z" stroke="black" stroke-opacity="0.1" stroke-miterlimit="10"/>
<path d="M185.139 110.46L110.188 73.4986L73.2276 148.449L148.179 185.409L185.139 110.46Z" stroke="black" stroke-opacity="0.1" stroke-miterlimit="10"/>
<path d="M178.422 122.055L122.062 78.8006L78.8077 135.16L135.168 178.415L178.422 122.055Z" stroke="black" stroke-opacity="0.1" stroke-miterlimit="10"/>
<path d="M171.218 131.383L131.395 85.9654L85.9764 125.789L125.799 171.207L171.218 131.383Z" stroke="black" stroke-opacity="0.1" stroke-miterlimit="10"/>
<path d="M164.092 138.287L138.427 93.8345L93.9762 119.498L119.641 163.95L164.092 138.287Z" stroke="black" stroke-opacity="0.1" stroke-miterlimit="10"/>
</svg>
