<svg width="13" height="13" viewBox="0 0 13 13" fill="none" xmlns="http://www.w3.org/2000/svg">
<path d="M1.18563 9.9125L3.62938 7.46875L5.39751 9.23625L8.25438 6.38L9.37501 7.5V4.375H6.25001L7.37063 5.49563L5.39751 7.46875L3.63001 5.70063L0.538755 8.79187C0.18246 7.99188 -0.00111731 7.12575 5.11611e-06 6.25C5.11611e-06 2.79813 2.79813 0 6.25001 0C9.70188 0 12.5 2.79813 12.5 6.25C12.5 9.70187 9.70188 12.5 6.25001 12.5C5.26125 12.5006 4.2865 12.2664 3.40601 11.8165C2.52552 11.3667 1.76451 10.7141 1.18563 9.9125Z" fill="#3772FF"/>
</svg>
