<svg width="60" height="30" viewBox="0 0 60 30" fill="none" xmlns="http://www.w3.org/2000/svg">
<rect width="60" height="30" rx="15" fill="#3772FF"/>
<path d="M13.5197 11H21.1168C21.2009 11 21.2838 11.0199 21.3587 11.058C21.4337 11.0962 21.4985 11.1516 21.5479 11.2196L23.5855 14.0209C23.6217 14.0708 23.6396 14.1316 23.636 14.1931C23.6324 14.2547 23.6076 14.313 23.5658 14.3583L17.5138 20.9145C17.4659 20.9663 17.3993 20.997 17.3288 20.9998C17.2582 21.0026 17.1894 20.9773 17.1375 20.9294C17.1338 20.9262 15.1122 18.7362 11.0706 14.3583C11.0288 14.313 11.004 14.2547 11.0005 14.1931C10.9969 14.1316 11.0147 14.0708 11.0509 14.0209L13.0885 11.2196C13.1379 11.1516 13.2028 11.0962 13.2777 11.058C13.3527 11.0199 13.4356 11 13.5197 11ZM13.7915 12.066L12.2992 14.1179L17.3182 19.5543L22.3373 14.1179L20.8449 12.066H13.7915Z" fill="white"/>
<path d="M30.859 20L31.366 17.582H29.507V16.347H31.639L32.068 14.345H30.131V13.11H32.328L32.848 10.718H34.148L33.628 13.11H36.254L36.774 10.718H38.074L37.567 13.11H39.309V14.345H37.294L36.865 16.347H38.685V17.582H36.605L36.085 20H34.785L35.305 17.582H32.679L32.159 20H30.859ZM32.939 16.347H35.565L35.994 14.345H33.368L32.939 16.347ZM43.7149 20.156C43.1255 20.156 42.5882 20.052 42.1029 19.844C41.6262 19.6273 41.2449 19.3023 40.9589 18.869C40.6729 18.4357 40.5212 17.894 40.5039 17.244H41.8689C41.8862 17.7293 42.0509 18.141 42.3629 18.479C42.6835 18.8083 43.1342 18.973 43.7149 18.973C44.2695 18.973 44.6942 18.8213 44.9889 18.518C45.2835 18.206 45.4309 17.8203 45.4309 17.361C45.4309 16.8063 45.2315 16.3947 44.8329 16.126C44.4429 15.8573 43.9619 15.723 43.3899 15.723H42.7139V14.579H43.4029C43.9142 14.579 44.3259 14.4577 44.6379 14.215C44.9585 13.9723 45.1189 13.63 45.1189 13.188C45.1189 12.8153 44.9932 12.512 44.7419 12.278C44.4992 12.044 44.1525 11.927 43.7019 11.927C43.2339 11.927 42.8655 12.0657 42.5969 12.343C42.3282 12.6117 42.1809 12.9497 42.1549 13.357H40.7899C40.8072 12.8283 40.9372 12.369 41.1799 11.979C41.4312 11.589 41.7735 11.2857 42.2069 11.069C42.6402 10.8523 43.1385 10.744 43.7019 10.744C44.3085 10.744 44.8155 10.8523 45.2229 11.069C45.6389 11.277 45.9509 11.563 46.1589 11.927C46.3755 12.2823 46.4839 12.6723 46.4839 13.097C46.4839 13.5823 46.3495 14.007 46.0809 14.371C45.8122 14.735 45.4525 14.9777 45.0019 15.099C45.5219 15.2117 45.9509 15.4673 46.2889 15.866C46.6269 16.256 46.7959 16.763 46.7959 17.387C46.7959 17.8897 46.6789 18.3533 46.4449 18.778C46.2109 19.194 45.8642 19.5277 45.4049 19.779C44.9455 20.0303 44.3822 20.156 43.7149 20.156Z" fill="white"/>
</svg>
