<svg width="60" height="30" viewBox="0 0 60 30" fill="none" xmlns="http://www.w3.org/2000/svg">
<rect width="60" height="30" rx="15" fill="#3772FF"/>
<path d="M17.6667 18.7433V19.8889H20.4444V21H13.7778V19.8889H16.5556V18.7433C15.4815 18.6079 14.4938 18.0851 13.7778 17.2732C13.0618 16.4612 12.6667 15.4159 12.6667 14.3333V11H21.5556V14.3333C21.5555 15.4159 21.1605 16.4612 20.4444 17.2732C19.7284 18.0851 18.7407 18.6079 17.6667 18.7433ZM13.7778 12.1111V14.3333C13.7778 15.2174 14.129 16.0652 14.7541 16.6904C15.3792 17.3155 16.2271 17.6667 17.1111 17.6667C17.9952 17.6667 18.843 17.3155 19.4681 16.6904C20.0933 16.0652 20.4444 15.2174 20.4444 14.3333V12.1111H13.7778ZM11 12.1111H12.1111V14.3333H11V12.1111ZM22.1111 12.1111H23.2222V14.3333H22.1111V12.1111Z" fill="white"/>
<path d="M31.859 20L32.366 17.582H30.507V16.347H32.639L33.068 14.345H31.131V13.11H33.328L33.848 10.718H35.148L34.628 13.11H37.254L37.774 10.718H39.074L38.567 13.11H40.309V14.345H38.294L37.865 16.347H39.685V17.582H37.605L37.085 20H35.785L36.305 17.582H33.679L33.159 20H31.859ZM33.939 16.347H36.565L36.994 14.345H34.368L33.939 16.347ZM41.6209 20V19.012C42.2102 18.544 42.7735 18.0717 43.3109 17.595C43.8482 17.1183 44.3249 16.6503 44.7409 16.191C45.1655 15.723 45.4992 15.268 45.7419 14.826C45.9845 14.3753 46.1059 13.942 46.1059 13.526C46.1059 13.2487 46.0582 12.9887 45.9629 12.746C45.8675 12.4947 45.7115 12.2953 45.4949 12.148C45.2782 11.992 44.9879 11.914 44.6239 11.914C44.0779 11.914 43.6662 12.0873 43.3889 12.434C43.1202 12.7807 42.9902 13.1967 42.9989 13.682H41.6599C41.6685 13.0407 41.8029 12.5033 42.0629 12.07C42.3315 11.6367 42.6869 11.3073 43.1289 11.082C43.5795 10.8567 44.0865 10.744 44.6499 10.744C45.5079 10.744 46.1925 10.9867 46.7039 11.472C47.2239 11.9487 47.4839 12.616 47.4839 13.474C47.4839 13.9853 47.3582 14.4923 47.1069 14.995C46.8642 15.4977 46.5435 15.983 46.1449 16.451C45.7549 16.9103 45.3345 17.3437 44.8839 17.751C44.4332 18.1583 44.0042 18.5267 43.5969 18.856H47.7569V20H41.6209Z" fill="white"/>
</svg>
