<svg width="60" height="30" viewBox="0 0 60 30" fill="none" xmlns="http://www.w3.org/2000/svg">
<rect width="60" height="30" rx="15" fill="#3772FF"/>
<path d="M14.1649 13.2907L14.8319 18.9626H22.324L22.991 13.2907L20.911 14.6771L18.5779 11.4109L16.2449 14.6771L14.1649 13.2907ZM13.8065 11.8046L15.9845 13.257L18.1557 10.2174C18.2037 10.1502 18.2671 10.0954 18.3405 10.0575C18.4139 10.0197 18.4953 10 18.5779 10C18.6605 10 18.742 10.0197 18.8154 10.0575C18.8888 10.0954 18.9522 10.1502 19.0002 10.2174L21.1714 13.257L23.3499 11.8046C23.4324 11.7498 23.5288 11.7197 23.6278 11.7179C23.7268 11.7161 23.8243 11.7426 23.9087 11.7945C23.9931 11.8463 24.0609 11.9212 24.104 12.0103C24.1472 12.0994 24.164 12.199 24.1524 12.2974L23.3001 19.542C23.2853 19.6682 23.2246 19.7845 23.1297 19.8689C23.0347 19.9533 22.9121 20 22.7851 20H14.3708C14.2438 20 14.1211 19.9533 14.0262 19.8689C13.9313 19.7845 13.8706 19.6682 13.8557 19.542L13.0035 12.2969C12.992 12.1986 13.0089 12.099 13.0521 12.01C13.0953 11.9209 13.1631 11.8461 13.2475 11.7944C13.3318 11.7426 13.4292 11.7161 13.5282 11.7179C13.6272 11.7197 13.7235 11.7498 13.8059 11.8046H13.8065ZM18.5779 16.8878C18.3028 16.8878 18.0389 16.7785 17.8444 16.584C17.6498 16.3894 17.5406 16.1256 17.5406 15.8504C17.5406 15.5753 17.6498 15.3114 17.8444 15.1169C18.0389 14.9223 18.3028 14.813 18.5779 14.813C18.8531 14.813 19.1169 14.9223 19.3115 15.1169C19.506 15.3114 19.6153 15.5753 19.6153 15.8504C19.6153 16.1256 19.506 16.3894 19.3115 16.584C19.1169 16.7785 18.8531 16.8878 18.5779 16.8878Z" fill="white"/>
<path d="M32.859 20L33.366 17.582H31.507V16.347H33.639L34.068 14.345H32.131V13.11H34.328L34.848 10.718H36.148L35.628 13.11H38.254L38.774 10.718H40.074L39.567 13.11H41.309V14.345H39.294L38.865 16.347H40.685V17.582H38.605L38.085 20H36.785L37.305 17.582H34.679L34.159 20H32.859ZM34.939 16.347H37.565L37.994 14.345H35.368L34.939 16.347ZM43.7389 20V12.46L42.2699 12.798V11.784L44.2849 10.9H45.1689V20H43.7389Z" fill="white"/>
</svg>
